%TF.GenerationSoftware,KiCad,Pcbnew,(5.1.9)-1*%
%TF.CreationDate,2021-01-20T11:54:18+01:00*%
%TF.ProjectId,mfd-pcb,6d66642d-7063-4622-9e6b-696361645f70,0.1*%
%TF.SameCoordinates,Original*%
%TF.FileFunction,Copper,L2,Bot*%
%TF.FilePolarity,Positive*%
%FSLAX46Y46*%
G04 Gerber Fmt 4.6, Leading zero omitted, Abs format (unit mm)*
G04 Created by KiCad (PCBNEW (5.1.9)-1) date 2021-01-20 11:54:18*
%MOMM*%
%LPD*%
G01*
G04 APERTURE LIST*
%TA.AperFunction,ComponentPad*%
%ADD10R,1.875000X1.875000*%
%TD*%
%TA.AperFunction,ComponentPad*%
%ADD11C,1.875000*%
%TD*%
%TA.AperFunction,ComponentPad*%
%ADD12O,1.700000X1.700000*%
%TD*%
%TA.AperFunction,ComponentPad*%
%ADD13R,1.700000X1.700000*%
%TD*%
%TA.AperFunction,ComponentPad*%
%ADD14O,1.600000X1.600000*%
%TD*%
%TA.AperFunction,ComponentPad*%
%ADD15C,1.600000*%
%TD*%
%TA.AperFunction,ViaPad*%
%ADD16C,0.800000*%
%TD*%
%TA.AperFunction,Conductor*%
%ADD17C,0.500000*%
%TD*%
G04 APERTURE END LIST*
D10*
%TO.P,S22,1*%
%TO.N,/Column2*%
X128192538Y-146021118D03*
D11*
%TO.P,S22,3*%
%TO.N,/Row3*%
X133192538Y-146021118D03*
%TO.P,S22,2*%
%TO.N,/Column2*%
X128192538Y-133521118D03*
%TO.P,S22,4*%
%TO.N,/Row3*%
X133192538Y-133521118D03*
%TD*%
D12*
%TO.P,J0,14*%
%TO.N,/Column1*%
X132080000Y-181356000D03*
%TO.P,J0,13*%
%TO.N,/Column3*%
X129540000Y-181356000D03*
%TO.P,J0,12*%
%TO.N,/Column4*%
X132080000Y-183896000D03*
%TO.P,J0,11*%
%TO.N,/Column2*%
X129540000Y-183896000D03*
%TO.P,J0,10*%
%TO.N,/Column5*%
X132080000Y-186436000D03*
%TO.P,J0,9*%
%TO.N,/Column0*%
X129540000Y-186436000D03*
%TO.P,J0,8*%
%TO.N,/Row3*%
X132080000Y-188976000D03*
%TO.P,J0,7*%
%TO.N,Net-(J0-Pad7)*%
X129540000Y-188976000D03*
%TO.P,J0,6*%
%TO.N,/Row2*%
X132080000Y-191516000D03*
%TO.P,J0,5*%
%TO.N,Net-(J0-Pad5)*%
X129540000Y-191516000D03*
%TO.P,J0,4*%
%TO.N,/Row1*%
X132080000Y-194056000D03*
%TO.P,J0,3*%
%TO.N,Net-(J0-Pad3)*%
X129540000Y-194056000D03*
%TO.P,J0,2*%
%TO.N,/Row0*%
X132080000Y-196596000D03*
D13*
%TO.P,J0,1*%
%TO.N,GND*%
X129540000Y-196596000D03*
%TD*%
D14*
%TO.P,R3,2*%
%TO.N,GND*%
X154686000Y-211074000D03*
D15*
%TO.P,R3,1*%
%TO.N,/Row3*%
X154686000Y-200914000D03*
%TD*%
D14*
%TO.P,R2,2*%
%TO.N,GND*%
X150876000Y-211074000D03*
D15*
%TO.P,R2,1*%
%TO.N,/Row2*%
X150876000Y-200914000D03*
%TD*%
D14*
%TO.P,R1,2*%
%TO.N,GND*%
X146812000Y-211074000D03*
D15*
%TO.P,R1,1*%
%TO.N,/Row1*%
X146812000Y-200914000D03*
%TD*%
D14*
%TO.P,R0,2*%
%TO.N,GND*%
X143002000Y-211074000D03*
D15*
%TO.P,R0,1*%
%TO.N,/Row0*%
X143002000Y-200914000D03*
%TD*%
D10*
%TO.P,S19,1*%
%TO.N,/Column5*%
X128192538Y-177021118D03*
D11*
%TO.P,S19,3*%
%TO.N,/Row3*%
X133192538Y-177021118D03*
%TO.P,S19,2*%
%TO.N,/Column5*%
X128192538Y-164521118D03*
%TO.P,S19,4*%
%TO.N,/Row3*%
X133192538Y-164521118D03*
%TD*%
D10*
%TO.P,S10,1*%
%TO.N,/Column4*%
X302392563Y-161521118D03*
D11*
%TO.P,S10,3*%
%TO.N,/Row1*%
X307392563Y-161521118D03*
%TO.P,S10,2*%
%TO.N,/Column4*%
X302392563Y-149021118D03*
%TO.P,S10,4*%
%TO.N,/Row1*%
X307392563Y-149021118D03*
%TD*%
D10*
%TO.P,S0,1*%
%TO.N,/Column0*%
X161442538Y-71241118D03*
D11*
%TO.P,S0,3*%
%TO.N,/Row0*%
X161442538Y-76241118D03*
%TO.P,S0,2*%
%TO.N,/Column0*%
X173942538Y-71241118D03*
%TO.P,S0,4*%
%TO.N,/Row0*%
X173942538Y-76241118D03*
%TD*%
D10*
%TO.P,S2,1*%
%TO.N,/Column2*%
X194842538Y-71241118D03*
D11*
%TO.P,S2,3*%
%TO.N,/Row0*%
X194842538Y-76241118D03*
%TO.P,S2,2*%
%TO.N,/Column2*%
X207342538Y-71241118D03*
%TO.P,S2,4*%
%TO.N,/Row0*%
X207342538Y-76241118D03*
%TD*%
D10*
%TO.P,S6,1*%
%TO.N,/Column0*%
X261642538Y-71241118D03*
D11*
%TO.P,S6,3*%
%TO.N,/Row1*%
X261642538Y-76241118D03*
%TO.P,S6,2*%
%TO.N,/Column0*%
X274142538Y-71241118D03*
%TO.P,S6,4*%
%TO.N,/Row1*%
X274142538Y-76241118D03*
%TD*%
D10*
%TO.P,S8,1*%
%TO.N,/Column2*%
X302392563Y-130521118D03*
D11*
%TO.P,S8,3*%
%TO.N,/Row1*%
X307392563Y-130521118D03*
%TO.P,S8,2*%
%TO.N,/Column2*%
X302392563Y-118021118D03*
%TO.P,S8,4*%
%TO.N,/Row1*%
X307392563Y-118021118D03*
%TD*%
D10*
%TO.P,S9,1*%
%TO.N,/Column3*%
X302392563Y-146021118D03*
D11*
%TO.P,S9,3*%
%TO.N,/Row1*%
X307392563Y-146021118D03*
%TO.P,S9,2*%
%TO.N,/Column3*%
X302392563Y-133521118D03*
%TO.P,S9,4*%
%TO.N,/Row1*%
X307392563Y-133521118D03*
%TD*%
D10*
%TO.P,S11,1*%
%TO.N,/Column5*%
X302392563Y-177021118D03*
D11*
%TO.P,S11,3*%
%TO.N,/Row1*%
X307392563Y-177021118D03*
%TO.P,S11,2*%
%TO.N,/Column5*%
X302392563Y-164521118D03*
%TO.P,S11,4*%
%TO.N,/Row1*%
X307392563Y-164521118D03*
%TD*%
D10*
%TO.P,S12,1*%
%TO.N,/Column0*%
X261642538Y-202971118D03*
D11*
%TO.P,S12,3*%
%TO.N,/Row2*%
X261642538Y-207971118D03*
%TO.P,S12,2*%
%TO.N,/Column0*%
X274142538Y-202971118D03*
%TO.P,S12,4*%
%TO.N,/Row2*%
X274142538Y-207971118D03*
%TD*%
D10*
%TO.P,S7,1*%
%TO.N,/Column1*%
X302392563Y-115021118D03*
D11*
%TO.P,S7,3*%
%TO.N,/Row1*%
X307392563Y-115021118D03*
%TO.P,S7,2*%
%TO.N,/Column1*%
X302392563Y-102521118D03*
%TO.P,S7,4*%
%TO.N,/Row1*%
X307392563Y-102521118D03*
%TD*%
D10*
%TO.P,S13,1*%
%TO.N,/Column1*%
X244942538Y-202971118D03*
D11*
%TO.P,S13,3*%
%TO.N,/Row2*%
X244942538Y-207971118D03*
%TO.P,S13,2*%
%TO.N,/Column1*%
X257442538Y-202971118D03*
%TO.P,S13,4*%
%TO.N,/Row2*%
X257442538Y-207971118D03*
%TD*%
D10*
%TO.P,S3,1*%
%TO.N,/Column3*%
X211542538Y-71241118D03*
D11*
%TO.P,S3,3*%
%TO.N,/Row0*%
X211542538Y-76241118D03*
%TO.P,S3,2*%
%TO.N,/Column3*%
X224042538Y-71241118D03*
%TO.P,S3,4*%
%TO.N,/Row0*%
X224042538Y-76241118D03*
%TD*%
D10*
%TO.P,S4,1*%
%TO.N,/Column4*%
X228242538Y-71241118D03*
D11*
%TO.P,S4,3*%
%TO.N,/Row0*%
X228242538Y-76241118D03*
%TO.P,S4,2*%
%TO.N,/Column4*%
X240742538Y-71241118D03*
%TO.P,S4,4*%
%TO.N,/Row0*%
X240742538Y-76241118D03*
%TD*%
D10*
%TO.P,S5,1*%
%TO.N,/Column5*%
X244942538Y-71241118D03*
D11*
%TO.P,S5,3*%
%TO.N,/Row0*%
X244942538Y-76241118D03*
%TO.P,S5,2*%
%TO.N,/Column5*%
X257442538Y-71241118D03*
%TO.P,S5,4*%
%TO.N,/Row0*%
X257442538Y-76241118D03*
%TD*%
D10*
%TO.P,S1,1*%
%TO.N,/Column1*%
X178142538Y-71241118D03*
D11*
%TO.P,S1,3*%
%TO.N,/Row0*%
X178142538Y-76241118D03*
%TO.P,S1,2*%
%TO.N,/Column1*%
X190642538Y-71241118D03*
%TO.P,S1,4*%
%TO.N,/Row0*%
X190642538Y-76241118D03*
%TD*%
D10*
%TO.P,S20,1*%
%TO.N,/Column4*%
X128192538Y-161521118D03*
D11*
%TO.P,S20,3*%
%TO.N,/Row3*%
X133192538Y-161521118D03*
%TO.P,S20,2*%
%TO.N,/Column4*%
X128192538Y-149021118D03*
%TO.P,S20,4*%
%TO.N,/Row3*%
X133192538Y-149021118D03*
%TD*%
D10*
%TO.P,S15,1*%
%TO.N,/Column3*%
X211542538Y-202971118D03*
D11*
%TO.P,S15,3*%
%TO.N,/Row2*%
X211542538Y-207971118D03*
%TO.P,S15,2*%
%TO.N,/Column3*%
X224042538Y-202971118D03*
%TO.P,S15,4*%
%TO.N,/Row2*%
X224042538Y-207971118D03*
%TD*%
D10*
%TO.P,S21,1*%
%TO.N,/Column3*%
X128192538Y-130521118D03*
D11*
%TO.P,S21,3*%
%TO.N,/Row3*%
X133192538Y-130521118D03*
%TO.P,S21,2*%
%TO.N,/Column3*%
X128192538Y-118021118D03*
%TO.P,S21,4*%
%TO.N,/Row3*%
X133192538Y-118021118D03*
%TD*%
D10*
%TO.P,S14,1*%
%TO.N,/Column2*%
X228242538Y-202971118D03*
D11*
%TO.P,S14,3*%
%TO.N,/Row2*%
X228242538Y-207971118D03*
%TO.P,S14,2*%
%TO.N,/Column2*%
X240742538Y-202971118D03*
%TO.P,S14,4*%
%TO.N,/Row2*%
X240742538Y-207971118D03*
%TD*%
D10*
%TO.P,S17,1*%
%TO.N,/Column5*%
X178142538Y-202971118D03*
D11*
%TO.P,S17,3*%
%TO.N,/Row2*%
X178142538Y-207971118D03*
%TO.P,S17,2*%
%TO.N,/Column5*%
X190642538Y-202971118D03*
%TO.P,S17,4*%
%TO.N,/Row2*%
X190642538Y-207971118D03*
%TD*%
D10*
%TO.P,S16,1*%
%TO.N,/Column4*%
X194842538Y-202971118D03*
D11*
%TO.P,S16,3*%
%TO.N,/Row2*%
X194842538Y-207971118D03*
%TO.P,S16,2*%
%TO.N,/Column4*%
X207342538Y-202971118D03*
%TO.P,S16,4*%
%TO.N,/Row2*%
X207342538Y-207971118D03*
%TD*%
D10*
%TO.P,S18,1*%
%TO.N,/Column0*%
X161442538Y-202971118D03*
D11*
%TO.P,S18,3*%
%TO.N,/Row3*%
X161442538Y-207971118D03*
%TO.P,S18,2*%
%TO.N,/Column0*%
X173942538Y-202971118D03*
%TO.P,S18,4*%
%TO.N,/Row3*%
X173942538Y-207971118D03*
%TD*%
D10*
%TO.P,S23,1*%
%TO.N,/Column1*%
X128192538Y-115021118D03*
D11*
%TO.P,S23,3*%
%TO.N,/Row3*%
X133192538Y-115021118D03*
%TO.P,S23,2*%
%TO.N,/Column1*%
X128192538Y-102521118D03*
%TO.P,S23,4*%
%TO.N,/Row3*%
X133192538Y-102521118D03*
%TD*%
D16*
%TO.N,/Column0*%
X124968000Y-131318000D03*
%TO.N,/Row0*%
X136398000Y-200914000D03*
X134929008Y-195229354D03*
%TO.N,/Column1*%
X302260000Y-75488800D03*
X302260000Y-80746600D03*
%TO.N,/Column2*%
X133858000Y-207772000D03*
%TO.N,/Column3*%
X161797992Y-206128000D03*
X125984000Y-183134000D03*
%TO.N,/Column4*%
X187452000Y-200446117D03*
X135382000Y-186690000D03*
X135382000Y-180340000D03*
%TO.N,/Column5*%
X162814000Y-200914000D03*
X144450180Y-196925820D03*
%TO.N,/Row1*%
X158549181Y-210258819D03*
%TO.N,/Row3*%
X134620000Y-193294000D03*
%TD*%
D17*
%TO.N,/Column0*%
X144658882Y-71241118D02*
X161442538Y-71241118D01*
X131064000Y-84836000D02*
X144658882Y-71241118D01*
X131064000Y-122537772D02*
X131064000Y-84836000D01*
X124968000Y-128633772D02*
X131064000Y-122537772D01*
X124968000Y-131318000D02*
X124968000Y-128633772D01*
X126746000Y-189230000D02*
X129540000Y-186436000D01*
X126746000Y-198628000D02*
X126746000Y-189230000D01*
X134874000Y-206756000D02*
X126746000Y-198628000D01*
X152908000Y-206756000D02*
X134874000Y-206756000D01*
X156692882Y-202971118D02*
X152908000Y-206756000D01*
X161442538Y-202971118D02*
X156692882Y-202971118D01*
%TO.N,/Row0*%
X136398000Y-196698346D02*
X134929008Y-195229354D01*
X136398000Y-200914000D02*
X136398000Y-196698346D01*
%TO.N,/Column1*%
X302260000Y-75488800D02*
X302260000Y-80746600D01*
%TO.N,/Column2*%
X129032000Y-183896000D02*
X129540000Y-183896000D01*
X124475990Y-148574010D02*
X124475990Y-179339990D01*
X127028882Y-146021118D02*
X124475990Y-148574010D01*
X124475990Y-179339990D02*
X129032000Y-183896000D01*
X128192538Y-146021118D02*
X127028882Y-146021118D01*
X125476000Y-187960000D02*
X125476000Y-199390000D01*
X125476000Y-199390000D02*
X133858000Y-207772000D01*
X129540000Y-183896000D02*
X125476000Y-187960000D01*
X210257656Y-68326000D02*
X207342538Y-71241118D01*
X213614000Y-68326000D02*
X210257656Y-68326000D01*
X215138000Y-73152000D02*
X215138000Y-69850000D01*
X215138000Y-69850000D02*
X213614000Y-68326000D01*
X143510000Y-74168000D02*
X214122000Y-74168000D01*
X137160000Y-80518000D02*
X143510000Y-74168000D01*
X130810000Y-132334000D02*
X130810000Y-124206000D01*
X129622882Y-133521118D02*
X130810000Y-132334000D01*
X214122000Y-74168000D02*
X215138000Y-73152000D01*
X137160000Y-117856000D02*
X137160000Y-80518000D01*
X130810000Y-124206000D02*
X137160000Y-117856000D01*
X128192538Y-133521118D02*
X129622882Y-133521118D01*
X154432000Y-207772000D02*
X133858000Y-207772000D01*
X185031990Y-204858010D02*
X157345990Y-204858010D01*
X157345990Y-204858010D02*
X154432000Y-207772000D01*
X191008000Y-198882000D02*
X185031990Y-204858010D01*
X225552000Y-198882000D02*
X191008000Y-198882000D01*
X228242538Y-201572538D02*
X225552000Y-198882000D01*
X228242538Y-202971118D02*
X228242538Y-201572538D01*
%TO.N,/Column3*%
X209615667Y-73167989D02*
X211542538Y-71241118D01*
X167752370Y-73167989D02*
X209615667Y-73167989D01*
X163672381Y-69088000D02*
X167752370Y-73167989D01*
X130048000Y-84074000D02*
X145034000Y-69088000D01*
X145034000Y-69088000D02*
X163672381Y-69088000D01*
X130048000Y-117094000D02*
X130048000Y-84074000D01*
X129120882Y-118021118D02*
X130048000Y-117094000D01*
X128192538Y-118021118D02*
X129120882Y-118021118D01*
X127832804Y-211582000D02*
X124221990Y-207971186D01*
X161797992Y-206128000D02*
X158870000Y-206128000D01*
X158870000Y-206128000D02*
X156210000Y-208788000D01*
X156210000Y-208788000D02*
X141478000Y-208788000D01*
X141478000Y-208788000D02*
X138684000Y-211582000D01*
X138684000Y-211582000D02*
X127832804Y-211582000D01*
X124221990Y-207971186D02*
X124221990Y-184896010D01*
X124221990Y-184896010D02*
X125984000Y-183134000D01*
%TO.N,/Column4*%
X209349420Y-204978000D02*
X207342538Y-202971118D01*
X298450000Y-197104000D02*
X290576000Y-204978000D01*
X290576000Y-204978000D02*
X209349420Y-204978000D01*
X298450000Y-164026181D02*
X298450000Y-197104000D01*
X300955063Y-161521118D02*
X298450000Y-164026181D01*
X302392563Y-161521118D02*
X300955063Y-161521118D01*
X130810000Y-164138580D02*
X128192538Y-161521118D01*
X130810000Y-171450000D02*
X130810000Y-164138580D01*
X135382000Y-176022000D02*
X130810000Y-171450000D01*
X135382000Y-180340000D02*
X135382000Y-176022000D01*
X132080000Y-183642000D02*
X135382000Y-180340000D01*
X132080000Y-183896000D02*
X132080000Y-183642000D01*
X303860882Y-149021118D02*
X302392563Y-149021118D01*
X304307989Y-87391989D02*
X304307989Y-148574011D01*
X304307989Y-148574011D02*
X303860882Y-149021118D01*
X291084000Y-74168000D02*
X304307989Y-87391989D01*
X243669420Y-74168000D02*
X291084000Y-74168000D01*
X240742538Y-71241118D02*
X243669420Y-74168000D01*
X135382000Y-190863771D02*
X135382000Y-186690000D01*
X143400229Y-198882000D02*
X135382000Y-190863771D01*
X185887883Y-198882000D02*
X143400229Y-198882000D01*
X187452000Y-200446117D02*
X185887883Y-198882000D01*
%TO.N,/Column5*%
X172720000Y-200406000D02*
X177038000Y-200406000D01*
X169926000Y-203200000D02*
X172720000Y-200406000D01*
X165100000Y-203200000D02*
X169926000Y-203200000D01*
X178142538Y-201510538D02*
X178142538Y-202971118D01*
X177038000Y-200406000D02*
X178142538Y-201510538D01*
X162814000Y-200914000D02*
X165100000Y-203200000D01*
X291084000Y-205994000D02*
X193665420Y-205994000D01*
X302392563Y-194685437D02*
X291084000Y-205994000D01*
X193665420Y-205994000D02*
X190642538Y-202971118D01*
X302392563Y-177021118D02*
X302392563Y-194685437D01*
X135001000Y-183515000D02*
X132080000Y-186436000D01*
X137317528Y-185831528D02*
X137317528Y-189793168D01*
X135001000Y-183515000D02*
X137317528Y-185831528D01*
X137317528Y-189793168D02*
X144450180Y-196925820D01*
X137317528Y-181198472D02*
X135001000Y-183515000D01*
X137317528Y-175671528D02*
X137317528Y-181198472D01*
X132334000Y-170688000D02*
X137317528Y-175671528D01*
X135636000Y-165862000D02*
X132334000Y-169164000D01*
X135636000Y-160020000D02*
X135636000Y-165862000D01*
X134874000Y-159258000D02*
X135636000Y-160020000D01*
X126746000Y-159258000D02*
X134874000Y-159258000D01*
X125730000Y-160274000D02*
X126746000Y-159258000D01*
X125730000Y-163830000D02*
X125730000Y-160274000D01*
X126421118Y-164521118D02*
X125730000Y-163830000D01*
X132334000Y-169164000D02*
X132334000Y-170688000D01*
X128192538Y-164521118D02*
X126421118Y-164521118D01*
X303854882Y-164521118D02*
X302392563Y-164521118D01*
X305308000Y-86842600D02*
X305308000Y-163068000D01*
X305308000Y-163068000D02*
X303854882Y-164521118D01*
X291633389Y-73167989D02*
X305308000Y-86842600D01*
X259369409Y-73167989D02*
X291633389Y-73167989D01*
X257442538Y-71241118D02*
X259369409Y-73167989D01*
%TO.N,/Row1*%
X307392563Y-177021118D02*
X307392563Y-191209437D01*
X160380362Y-212090000D02*
X158549181Y-210258819D01*
X307392563Y-191209437D02*
X286512000Y-212090000D01*
X286512000Y-212090000D02*
X160380362Y-212090000D01*
%TO.N,/Row2*%
X134620000Y-191516000D02*
X132080000Y-191516000D01*
X138938000Y-200152000D02*
X138938000Y-195834000D01*
X138938000Y-195834000D02*
X134620000Y-191516000D01*
X141732000Y-202946000D02*
X138938000Y-200152000D01*
X148844000Y-202946000D02*
X141732000Y-202946000D01*
X150876000Y-200914000D02*
X148844000Y-202946000D01*
%TO.N,/Row3*%
X154686000Y-200914000D02*
X154686000Y-201422000D01*
X137668000Y-196342000D02*
X134620000Y-193294000D01*
X137668000Y-200660000D02*
X137668000Y-196342000D01*
X140970000Y-203962000D02*
X137668000Y-200660000D01*
X151638000Y-203962000D02*
X140970000Y-203962000D01*
X154686000Y-200914000D02*
X151638000Y-203962000D01*
%TD*%
M02*
