M48
; DRILL file {KiCad (5.1.9)-1} date 01/20/21 11:54:29
; FORMAT={-:-/ absolute / inch / decimal}
; #@! TF.CreationDate,2021-01-20T11:54:29+01:00
; #@! TF.GenerationSoftware,Kicad,Pcbnew,(5.1.9)-1
FMAT,2
INCH
T1C0.0157
T2C0.0315
T3C0.0394
T4C0.0492
T5C0.0728
%
G90
G05
T1
X4.92Y-5.17
X4.96Y-7.21
X5.27Y-8.18
X5.3Y-7.61
X5.3122Y-7.6862
X5.33Y-7.1
X5.33Y-7.35
X5.37Y-7.91
X5.687Y-7.753
X6.2421Y-8.2779
X6.37Y-8.1153
X6.41Y-7.91
X7.38Y-7.8916
X11.9Y-2.972
X11.9Y-3.179
T2
X5.63Y-7.91
X5.63Y-8.31
X5.78Y-7.91
X5.78Y-8.31
X5.94Y-7.91
X5.94Y-8.31
X6.09Y-7.91
X6.09Y-8.31
T3
X5.1Y-7.14
X5.1Y-7.24
X5.1Y-7.34
X5.1Y-7.44
X5.1Y-7.54
X5.1Y-7.64
X5.1Y-7.74
X5.2Y-7.14
X5.2Y-7.24
X5.2Y-7.34
X5.2Y-7.44
X5.2Y-7.54
X5.2Y-7.64
X5.2Y-7.74
T4
X5.047Y-4.0363
X5.047Y-4.5284
X5.047Y-4.6465
X5.047Y-5.1386
X5.047Y-5.2567
X5.047Y-5.7489
X5.047Y-5.867
X5.047Y-6.3591
X5.047Y-6.4772
X5.047Y-6.9693
X5.2438Y-4.0363
X5.2438Y-4.5284
X5.2438Y-4.6465
X5.2438Y-5.1386
X5.2438Y-5.2567
X5.2438Y-5.7489
X5.2438Y-5.867
X5.2438Y-6.3591
X5.2438Y-6.4772
X5.2438Y-6.9693
X6.356Y-2.8048
X6.356Y-3.0016
X6.356Y-7.991
X6.356Y-8.1878
X6.8481Y-2.8048
X6.8481Y-3.0016
X6.8481Y-7.991
X6.8481Y-8.1878
X7.0135Y-2.8048
X7.0135Y-3.0016
X7.0135Y-7.991
X7.0135Y-8.1878
X7.5056Y-2.8048
X7.5056Y-3.0016
X7.5056Y-7.991
X7.5056Y-8.1878
X7.671Y-2.8048
X7.671Y-3.0016
X7.671Y-7.991
X7.671Y-8.1878
X8.1631Y-2.8048
X8.1631Y-3.0016
X8.1631Y-7.991
X8.1631Y-8.1878
X8.3284Y-2.8048
X8.3284Y-3.0016
X8.3284Y-7.991
X8.3284Y-8.1878
X8.8206Y-2.8048
X8.8206Y-3.0016
X8.8206Y-7.991
X8.8206Y-8.1878
X8.9859Y-2.8048
X8.9859Y-3.0016
X8.9859Y-7.991
X8.9859Y-8.1878
X9.4781Y-2.8048
X9.4781Y-3.0016
X9.4781Y-7.991
X9.4781Y-8.1878
X9.6434Y-2.8048
X9.6434Y-3.0016
X9.6434Y-7.991
X9.6434Y-8.1878
X10.1355Y-2.8048
X10.1355Y-3.0016
X10.1355Y-7.991
X10.1355Y-8.1878
X10.3009Y-2.8048
X10.3009Y-3.0016
X10.3009Y-7.991
X10.3009Y-8.1878
X10.793Y-2.8048
X10.793Y-3.0016
X10.793Y-7.991
X10.793Y-8.1878
X11.9052Y-4.0363
X11.9052Y-4.5284
X11.9052Y-4.6465
X11.9052Y-5.1386
X11.9052Y-5.2567
X11.9052Y-5.7489
X11.9052Y-5.867
X11.9052Y-6.3591
X11.9052Y-6.4772
X11.9052Y-6.9693
X12.1021Y-4.0363
X12.1021Y-4.5284
X12.1021Y-4.6465
X12.1021Y-5.1386
X12.1021Y-5.2567
X12.1021Y-5.7489
X12.1021Y-5.867
X12.1021Y-6.3591
X12.1021Y-6.4772
X12.1021Y-6.9693
T5
X4.9682Y-4.2823
X4.9682Y-4.8926
X4.9682Y-5.5028
X4.9682Y-6.113
X4.9682Y-6.7233
X5.3225Y-4.2823
X5.3225Y-4.8926
X5.3225Y-5.5028
X5.3225Y-6.113
X5.3225Y-6.7233
X6.6021Y-2.726
X6.6021Y-3.0804
X6.6021Y-7.9122
X6.6021Y-8.2666
X7.2595Y-2.726
X7.2595Y-3.0804
X7.2595Y-7.9122
X7.2595Y-8.2666
X7.917Y-2.726
X7.917Y-3.0804
X7.917Y-7.9122
X7.917Y-8.2666
X8.5745Y-2.726
X8.5745Y-3.0804
X8.5745Y-7.9122
X8.5745Y-8.2666
X9.232Y-2.726
X9.232Y-3.0804
X9.232Y-7.9122
X9.232Y-8.2666
X9.8895Y-2.726
X9.8895Y-3.0804
X9.8895Y-7.9122
X9.8895Y-8.2666
X10.547Y-2.726
X10.547Y-3.0804
X10.547Y-7.9122
X10.547Y-8.2666
X11.8265Y-4.2823
X11.8265Y-4.8926
X11.8265Y-5.5028
X11.8265Y-6.113
X11.8265Y-6.7233
X12.1808Y-4.2823
X12.1808Y-4.8926
X12.1808Y-5.5028
X12.1808Y-6.113
X12.1808Y-6.7233
T0
M30
