%TF.GenerationSoftware,KiCad,Pcbnew,(5.1.9)-1*%
%TF.CreationDate,2021-01-20T11:54:18+01:00*%
%TF.ProjectId,mfd-pcb,6d66642d-7063-4622-9e6b-696361645f70,0.1*%
%TF.SameCoordinates,Original*%
%TF.FileFunction,Profile,NP*%
%FSLAX46Y46*%
G04 Gerber Fmt 4.6, Leading zero omitted, Abs format (unit mm)*
G04 Created by KiCad (PCBNEW (5.1.9)-1) date 2021-01-20 11:54:18*
%MOMM*%
%LPD*%
G01*
G04 APERTURE LIST*
%TA.AperFunction,Profile*%
%ADD10C,0.250000*%
%TD*%
G04 APERTURE END LIST*
D10*
X312392563Y-207176118D02*
G75*
G02*
X306597563Y-212971118I-5795000J0D01*
G01*
X297392563Y-96141118D02*
X297392563Y-183065186D01*
X282492563Y-81241118D02*
G75*
G02*
X297392563Y-96141118I0J-14900000D01*
G01*
X306597563Y-212971118D02*
X128987538Y-212971118D01*
X153092538Y-81241118D02*
X282492563Y-81241118D01*
X129583318Y-208188096D02*
G75*
G03*
X129583318Y-208188096I-1600000J0D01*
G01*
X128987258Y-66241118D02*
X306607001Y-66241118D01*
X138192538Y-96141118D02*
G75*
G02*
X153092538Y-81241118I14900000J0D01*
G01*
X309201163Y-71024219D02*
G75*
G03*
X309201163Y-71024219I-1600000J0D01*
G01*
X123192538Y-207176118D02*
X123192538Y-72035837D01*
X128987538Y-212971118D02*
G75*
G02*
X123192538Y-207176118I0J5795000D01*
G01*
X282494070Y-197965186D02*
X153093938Y-197971462D01*
X297392563Y-183065186D02*
G75*
G02*
X282494070Y-197965186I-14900000J0D01*
G01*
X309192563Y-208175073D02*
G75*
G03*
X309192563Y-208175073I-1600000J0D01*
G01*
X129585535Y-71033853D02*
G75*
G03*
X129585535Y-71033853I-1600000J0D01*
G01*
X312392563Y-72026680D02*
X312392563Y-207176118D01*
X123192539Y-72035837D02*
G75*
G02*
X128987258Y-66241118I5794719J0D01*
G01*
X306607001Y-66241118D02*
G75*
G02*
X312392563Y-72026680I0J-5785562D01*
G01*
X138192538Y-183070000D02*
X138192538Y-96141118D01*
X153093938Y-197971462D02*
G75*
G02*
X138192538Y-183070000I62J14901462D01*
G01*
M02*
