%TF.GenerationSoftware,KiCad,Pcbnew,(5.1.9)-1*%
%TF.CreationDate,2021-01-20T11:54:18+01:00*%
%TF.ProjectId,mfd-pcb,6d66642d-7063-4622-9e6b-696361645f70,0.1*%
%TF.SameCoordinates,Original*%
%TF.FileFunction,Soldermask,Bot*%
%TF.FilePolarity,Negative*%
%FSLAX46Y46*%
G04 Gerber Fmt 4.6, Leading zero omitted, Abs format (unit mm)*
G04 Created by KiCad (PCBNEW (5.1.9)-1) date 2021-01-20 11:54:18*
%MOMM*%
%LPD*%
G01*
G04 APERTURE LIST*
%ADD10R,1.875000X1.875000*%
%ADD11C,1.875000*%
%ADD12C,1.850000*%
%ADD13O,1.700000X1.700000*%
%ADD14R,1.700000X1.700000*%
%ADD15O,1.600000X1.600000*%
%ADD16C,1.600000*%
G04 APERTURE END LIST*
D10*
%TO.C,S22*%
X128192538Y-146021118D03*
D11*
X133192538Y-146021118D03*
X128192538Y-133521118D03*
X133192538Y-133521118D03*
D12*
X126192538Y-139771118D03*
X135192538Y-139771118D03*
%TD*%
D13*
%TO.C,J0*%
X132080000Y-181356000D03*
X129540000Y-181356000D03*
X132080000Y-183896000D03*
X129540000Y-183896000D03*
X132080000Y-186436000D03*
X129540000Y-186436000D03*
X132080000Y-188976000D03*
X129540000Y-188976000D03*
X132080000Y-191516000D03*
X129540000Y-191516000D03*
X132080000Y-194056000D03*
X129540000Y-194056000D03*
X132080000Y-196596000D03*
D14*
X129540000Y-196596000D03*
%TD*%
D15*
%TO.C,R3*%
X154686000Y-211074000D03*
D16*
X154686000Y-200914000D03*
%TD*%
D15*
%TO.C,R2*%
X150876000Y-211074000D03*
D16*
X150876000Y-200914000D03*
%TD*%
D15*
%TO.C,R1*%
X146812000Y-211074000D03*
D16*
X146812000Y-200914000D03*
%TD*%
D15*
%TO.C,R0*%
X143002000Y-211074000D03*
D16*
X143002000Y-200914000D03*
%TD*%
D10*
%TO.C,S19*%
X128192538Y-177021118D03*
D11*
X133192538Y-177021118D03*
X128192538Y-164521118D03*
X133192538Y-164521118D03*
D12*
X126192538Y-170771118D03*
X135192538Y-170771118D03*
%TD*%
D10*
%TO.C,S10*%
X302392563Y-161521118D03*
D11*
X307392563Y-161521118D03*
X302392563Y-149021118D03*
X307392563Y-149021118D03*
D12*
X300392563Y-155271118D03*
X309392563Y-155271118D03*
%TD*%
D10*
%TO.C,S0*%
X161442538Y-71241118D03*
D11*
X161442538Y-76241118D03*
X173942538Y-71241118D03*
X173942538Y-76241118D03*
D12*
X167692538Y-69241118D03*
X167692538Y-78241118D03*
%TD*%
D10*
%TO.C,S2*%
X194842538Y-71241118D03*
D11*
X194842538Y-76241118D03*
X207342538Y-71241118D03*
X207342538Y-76241118D03*
D12*
X201092538Y-69241118D03*
X201092538Y-78241118D03*
%TD*%
D10*
%TO.C,S6*%
X261642538Y-71241118D03*
D11*
X261642538Y-76241118D03*
X274142538Y-71241118D03*
X274142538Y-76241118D03*
D12*
X267892538Y-69241118D03*
X267892538Y-78241118D03*
%TD*%
D10*
%TO.C,S8*%
X302392563Y-130521118D03*
D11*
X307392563Y-130521118D03*
X302392563Y-118021118D03*
X307392563Y-118021118D03*
D12*
X300392563Y-124271118D03*
X309392563Y-124271118D03*
%TD*%
D10*
%TO.C,S9*%
X302392563Y-146021118D03*
D11*
X307392563Y-146021118D03*
X302392563Y-133521118D03*
X307392563Y-133521118D03*
D12*
X300392563Y-139771118D03*
X309392563Y-139771118D03*
%TD*%
D10*
%TO.C,S11*%
X302392563Y-177021118D03*
D11*
X307392563Y-177021118D03*
X302392563Y-164521118D03*
X307392563Y-164521118D03*
D12*
X300392563Y-170771118D03*
X309392563Y-170771118D03*
%TD*%
D10*
%TO.C,S12*%
X261642538Y-202971118D03*
D11*
X261642538Y-207971118D03*
X274142538Y-202971118D03*
X274142538Y-207971118D03*
D12*
X267892538Y-200971118D03*
X267892538Y-209971118D03*
%TD*%
D10*
%TO.C,S7*%
X302392563Y-115021118D03*
D11*
X307392563Y-115021118D03*
X302392563Y-102521118D03*
X307392563Y-102521118D03*
D12*
X300392563Y-108771118D03*
X309392563Y-108771118D03*
%TD*%
D10*
%TO.C,S13*%
X244942538Y-202971118D03*
D11*
X244942538Y-207971118D03*
X257442538Y-202971118D03*
X257442538Y-207971118D03*
D12*
X251192538Y-200971118D03*
X251192538Y-209971118D03*
%TD*%
D10*
%TO.C,S3*%
X211542538Y-71241118D03*
D11*
X211542538Y-76241118D03*
X224042538Y-71241118D03*
X224042538Y-76241118D03*
D12*
X217792538Y-69241118D03*
X217792538Y-78241118D03*
%TD*%
D10*
%TO.C,S4*%
X228242538Y-71241118D03*
D11*
X228242538Y-76241118D03*
X240742538Y-71241118D03*
X240742538Y-76241118D03*
D12*
X234492538Y-69241118D03*
X234492538Y-78241118D03*
%TD*%
D10*
%TO.C,S5*%
X244942538Y-71241118D03*
D11*
X244942538Y-76241118D03*
X257442538Y-71241118D03*
X257442538Y-76241118D03*
D12*
X251192538Y-69241118D03*
X251192538Y-78241118D03*
%TD*%
D10*
%TO.C,S1*%
X178142538Y-71241118D03*
D11*
X178142538Y-76241118D03*
X190642538Y-71241118D03*
X190642538Y-76241118D03*
D12*
X184392538Y-69241118D03*
X184392538Y-78241118D03*
%TD*%
D10*
%TO.C,S20*%
X128192538Y-161521118D03*
D11*
X133192538Y-161521118D03*
X128192538Y-149021118D03*
X133192538Y-149021118D03*
D12*
X126192538Y-155271118D03*
X135192538Y-155271118D03*
%TD*%
D10*
%TO.C,S15*%
X211542538Y-202971118D03*
D11*
X211542538Y-207971118D03*
X224042538Y-202971118D03*
X224042538Y-207971118D03*
D12*
X217792538Y-200971118D03*
X217792538Y-209971118D03*
%TD*%
D10*
%TO.C,S21*%
X128192538Y-130521118D03*
D11*
X133192538Y-130521118D03*
X128192538Y-118021118D03*
X133192538Y-118021118D03*
D12*
X126192538Y-124271118D03*
X135192538Y-124271118D03*
%TD*%
D10*
%TO.C,S14*%
X228242538Y-202971118D03*
D11*
X228242538Y-207971118D03*
X240742538Y-202971118D03*
X240742538Y-207971118D03*
D12*
X234492538Y-200971118D03*
X234492538Y-209971118D03*
%TD*%
D10*
%TO.C,S17*%
X178142538Y-202971118D03*
D11*
X178142538Y-207971118D03*
X190642538Y-202971118D03*
X190642538Y-207971118D03*
D12*
X184392538Y-200971118D03*
X184392538Y-209971118D03*
%TD*%
D10*
%TO.C,S16*%
X194842538Y-202971118D03*
D11*
X194842538Y-207971118D03*
X207342538Y-202971118D03*
X207342538Y-207971118D03*
D12*
X201092538Y-200971118D03*
X201092538Y-209971118D03*
%TD*%
D10*
%TO.C,S18*%
X161442538Y-202971118D03*
D11*
X161442538Y-207971118D03*
X173942538Y-202971118D03*
X173942538Y-207971118D03*
D12*
X167692538Y-200971118D03*
X167692538Y-209971118D03*
%TD*%
D10*
%TO.C,S23*%
X128192538Y-115021118D03*
D11*
X133192538Y-115021118D03*
X128192538Y-102521118D03*
X133192538Y-102521118D03*
D12*
X126192538Y-108771118D03*
X135192538Y-108771118D03*
%TD*%
M02*
